<?xml version="1.0" encoding="utf-8"?>
<!-- Generator: Adobe Illustrator 17.0.0, SVG Export Plug-In . SVG Version: 6.00 Build 0)  -->
<!DOCTYPE svg PUBLIC "-//W3C//DTD SVG 1.1//EN" "http://www.w3.org/Graphics/SVG/1.1/DTD/svg11.dtd">
<svg version="1.1" id="Layer_1" xmlns="http://www.w3.org/2000/svg" xmlns:xlink="http://www.w3.org/1999/xlink" x="0px" y="0px"
	 width="120.5px" height="51.5px" viewBox="0 0 120.5 51.5" enable-background="new 0 0 120.5 51.5" xml:space="preserve">
<polygon fill="#F1E407" points="1.883,7.869 4.755,7.869 4.755,47.721 25.591,47.721 25.591,50.45 1.883,50.45 "/>
<polygon fill="#F1E407" points="57.222,11.213 41.944,50.449 38.716,50.449 55.572,7.914 59.159,7.914 75.8,50.449 72.5,50.449 "/>
<path fill="#F1E407" d="M110.686,31.587c-1.483-1.96-3.324-3.131-5.523-3.515c1.673-0.287,3.036-1.386,4.088-3.299
	c1.1-1.912,1.65-4.184,1.65-6.814c0-2.773-0.909-5.179-2.726-7.187c-1.864-1.961-4.088-2.956-6.671-2.956H84.045v3.104h16.886
	c1.96,0,3.633,0.579,5.021,2.013c1.386,1.435,2.08,3.087,2.08,5.095c0,2.487-0.694,4.614-2.08,6.383
	c-1.388,1.769-3.061,2.652-5.021,2.652H84.045v2.691h16.886c2.485,0,4.614,0.809,6.383,2.53c1.769,1.675,2.655,3.704,2.655,6.143
	c0,2.535-0.886,4.75-2.655,6.567c-1.769,1.818-3.898,2.765-6.383,2.765H94.6v2.69h6.904c3.108,0,5.786-1.205,8.034-3.549
	c2.199-2.342,3.3-5.182,3.3-8.481C112.838,35.837,112.121,33.548,110.686,31.587"/>
<path fill="#F1E407" d="M119.192,4.682c0,0.484-0.085,0.924-0.256,1.322c-0.169,0.397-0.4,0.738-0.691,1.019
	c-0.29,0.283-0.628,0.502-1.011,0.657c-0.383,0.156-0.785,0.234-1.206,0.234c-0.466,0-0.894-0.082-1.282-0.247
	c-0.389-0.164-0.723-0.39-1.003-0.678c-0.28-0.288-0.498-0.629-0.657-1.024c-0.159-0.394-0.237-0.822-0.237-1.283
	c0-0.484,0.084-0.925,0.254-1.323c0.171-0.397,0.401-0.737,0.692-1.019s0.629-0.502,1.015-0.657
	c0.386-0.156,0.792-0.233,1.218-0.233c0.421,0,0.823,0.077,1.206,0.233c0.383,0.155,0.721,0.375,1.011,0.657
	c0.291,0.282,0.522,0.622,0.691,1.019C119.107,3.757,119.192,4.198,119.192,4.682 M118.5,4.682c0-0.392-0.063-0.752-0.19-1.08
	c-0.127-0.329-0.303-0.611-0.527-0.847c-0.225-0.236-0.487-0.42-0.786-0.549c-0.3-0.13-0.623-0.195-0.969-0.195
	c-0.351,0-0.678,0.065-0.98,0.195c-0.302,0.129-0.566,0.313-0.791,0.549c-0.225,0.236-0.4,0.518-0.527,0.847
	c-0.127,0.328-0.19,0.688-0.19,1.08c0,0.368,0.057,0.714,0.173,1.037c0.115,0.323,0.281,0.605,0.497,0.847
	c0.215,0.242,0.477,0.434,0.782,0.574c0.305,0.142,0.651,0.212,1.036,0.212c0.346,0,0.669-0.065,0.969-0.194
	c0.299-0.13,0.561-0.313,0.786-0.549c0.224-0.236,0.4-0.517,0.527-0.842C118.437,5.441,118.5,5.079,118.5,4.682 M115.389,6.53
	h-0.587V2.953h1.356c0.432,0,0.758,0.081,0.976,0.242c0.22,0.161,0.329,0.424,0.329,0.787c0,0.322-0.089,0.559-0.268,0.708
	c-0.179,0.15-0.4,0.24-0.665,0.268l1.003,1.573h-0.666l-0.925-1.53h-0.553V6.53z M116.046,4.499c0.109,0,0.214-0.004,0.315-0.013
	c0.101-0.008,0.189-0.033,0.264-0.073s0.135-0.097,0.181-0.169c0.047-0.072,0.07-0.174,0.07-0.307c0-0.109-0.025-0.195-0.074-0.258
	c-0.048-0.064-0.111-0.113-0.186-0.148c-0.074-0.034-0.158-0.056-0.25-0.065c-0.092-0.008-0.182-0.012-0.268-0.012h-0.709v1.045
	H116.046z"/>
</svg>
