<svg width="24px" height="24px" viewBox="0 0 24 24">
<path fill="#F7F719" d="M18.703,17.793h-2.647v-4.469c0-1.241-0.497-1.903-1.408-1.903c-1.076,0-1.572,0.744-1.572,1.903v4.469
	h-2.565V9.269h2.565v1.159c0,0,0.744-1.407,2.566-1.407c1.82,0,3.061,1.076,3.061,3.393V17.793 M7.448,8.193
	c-0.827,0-1.572-0.745-1.572-1.572c0-0.828,0.662-1.573,1.572-1.573c0.827,0,1.573,0.745,1.573,1.573
	C9.021,7.448,8.358,8.193,7.448,8.193 M8.772,17.793H6.124V9.269h2.648V17.793z M12,0C5.379,0,0,5.379,0,12c0,6.621,5.379,12,12,12
	c6.621,0,12-5.379,12-12C24,5.379,18.621,0,12,0"/>
</svg>