
<svg width="29px" height="23.574px" viewBox="0 0 29 23.574">
    <path fill="#F7F719" d="M21.204,17.367h-2.649v-4.469c0-1.241-0.496-1.903-1.407-1.903c-1.076,0-1.572,0.744-1.572,1.903v4.469
    	H13.01V8.843h2.566v1.159c0,0,0.745-1.407,2.565-1.407c1.821,0,3.063,1.076,3.063,3.393V17.367 M9.948,7.767
    	c-0.827,0-1.572-0.745-1.572-1.572c0-0.828,0.662-1.573,1.572-1.573c0.828,0,1.573,0.745,1.573,1.573
    	C11.521,7.022,10.859,7.767,9.948,7.767 M11.272,17.367H8.624V8.843h2.648V17.367z M14.5-0.426c-6.621,0-12,5.379-12,12
    	c0,6.621,5.379,12,12,12c6.621,0,12-5.379,12-12C26.5,4.953,21.121-0.426,14.5-0.426"/>
</svg>
