<svg width="24px" height="23.828px" viewBox="0 0 24 23.828">
    <g>
    	<defs>
    		<rect id="SVGID_1_" y="-0.171" width="23.999" height="23.999"/>
    	</defs>
    	<clipPath id="SVGID_2_">
    		<use xlink:href="#SVGID_1_"  overflow="visible"/>
    	</clipPath>
    	<path clip-path="url(#SVGID_2_)" fill="#F7F719" d="M18.042,9.759c0.165,3.889-2.731,8.276-7.945,8.276
    		c-1.573,0-3.062-0.497-4.304-1.241c1.49,0.165,2.979-0.249,4.138-1.159c-1.242,0-2.234-0.828-2.565-1.904
    		c0.413,0.083,0.827,0.083,1.241-0.083c-1.324-0.248-2.234-1.489-2.234-2.73c0.413,0.248,0.827,0.331,1.241,0.331
    		c-1.241-0.828-1.572-2.483-0.828-3.725c1.407,1.656,3.393,2.815,5.711,2.897c-0.414-1.738,0.91-3.393,2.731-3.393
    		c0.827,0,1.489,0.331,2.068,0.91c0.662-0.165,1.242-0.331,1.739-0.662c-0.249,0.662-0.662,1.158-1.242,1.573
    		c0.58-0.083,1.076-0.249,1.573-0.415C19.035,8.849,18.538,9.346,18.042,9.759 M12-0.172c-6.621,0-12,5.379-12,12
    		c0,6.621,5.379,12,12,12c6.621,0,12-5.379,12-12C24,5.207,18.621-0.172,12-0.172"/>
    </g>
</svg>
